<svg xmlns="http://www.w3.org/2000/svg" viewBox="0 0 200 200" width="200" height="200">
  <!-- Fundo transparente -->
  <defs>
    <linearGradient id="blueGradient" x1="0%" y1="0%" x2="100%" y2="100%">
      <stop offset="0%" style="stop-color:#1e3a5f;stop-opacity:1" />
      <stop offset="100%" style="stop-color:#2c5282;stop-opacity:1" />
    </linearGradient>
    <linearGradient id="orangeGradient" x1="0%" y1="0%" x2="100%" y2="100%">
      <stop offset="0%" style="stop-color:#ed8936;stop-opacity:1" />
      <stop offset="100%" style="stop-color:#dd6b20;stop-opacity:1" />
    </linearGradient>
  </defs>
  
  <!-- Barra vertical azul (parte esquerda do K) -->
  <rect x="40" y="20" width="35" height="160" rx="4" fill="url(#blueGradient)"/>
  
  <!-- Quadrados decorativos azuis na barra vertical -->
  <rect x="48" y="35" width="8" height="8" rx="1" fill="#3182ce" opacity="0.6"/>
  <rect x="60" y="50" width="6" height="6" rx="1" fill="#4299e1" opacity="0.5"/>
  <rect x="52" y="70" width="10" height="10" rx="1" fill="#3182ce" opacity="0.4"/>
  <rect x="48" y="95" width="7" height="7" rx="1" fill="#4299e1" opacity="0.6"/>
  <rect x="58" y="115" width="9" height="9" rx="1" fill="#3182ce" opacity="0.5"/>
  <rect x="50" y="140" width="8" height="8" rx="1" fill="#4299e1" opacity="0.4"/>
  <rect x="62" y="160" width="6" height="6" rx="1" fill="#3182ce" opacity="0.6"/>
  
  <!-- Quadrados decorativos laranjas na barra vertical -->
  <rect x="55" y="45" width="5" height="5" rx="1" fill="#ed8936" opacity="0.7"/>
  <rect x="47" y="62" width="7" height="7" rx="1" fill="#f6ad55" opacity="0.6"/>
  <rect x="59" y="82" width="6" height="6" rx="1" fill="#ed8936" opacity="0.5"/>
  <rect x="53" y="108" width="8" height="8" rx="1" fill="#f6ad55" opacity="0.7"/>
  <rect x="61" y="130" width="5" height="5" rx="1" fill="#ed8936" opacity="0.6"/>
  <rect x="49" y="152" width="7" height="7" rx="1" fill="#f6ad55" opacity="0.5"/>
  
  <!-- Barra diagonal laranja (parte direita do K) -->
  <polygon points="85,20 125,20 165,180 125,180 95,90 75,90" fill="url(#orangeGradient)"/>
  
  <!-- Quadrados decorativos na diagonal laranja -->
  <rect x="95" y="35" width="8" height="8" rx="1" fill="#f6ad55" opacity="0.5"/>
  <rect x="105" y="55" width="6" height="6" rx="1" fill="#ed8936" opacity="0.6"/>
  <rect x="115" y="80" width="10" height="10" rx="1" fill="#f6ad55" opacity="0.4"/>
  <rect x="125" y="105" width="7" height="7" rx="1" fill="#ed8936" opacity="0.5"/>
  <rect x="135" y="130" width="9" height="9" rx="1" fill="#f6ad55" opacity="0.6"/>
  <rect x="145" y="155" width="8" height="8" rx="1" fill="#ed8936" opacity="0.5"/>
  
  <!-- Quadrados decorativos azuis na diagonal laranja -->
  <rect x="100" y="45" width="5" height="5" rx="1" fill="#3182ce" opacity="0.6"/>
  <rect x="110" y="68" width="7" height="7" rx="1" fill="#4299e1" opacity="0.5"/>
  <rect x="120" y="92" width="6" height="6" rx="1" fill="#3182ce" opacity="0.7"/>
  <rect x="130" y="118" width="8" height="8" rx="1" fill="#4299e1" opacity="0.6"/>
  <rect x="140" y="142" width="5" height="5" rx="1" fill="#3182ce" opacity="0.5"/>
</svg>